<?xml version="1.0" encoding="utf-8"?>
<svg version="1.1" id="Layer_1" xmlns="http://www.w3.org/2000/svg" xmlns:xlink="http://www.w3.org/1999/xlink" x="0px" y="0px"
	 viewBox="0 0 512 512" style="enable-background:new 0 0 512 512;" xml:space="preserve" height="120" width="120">
<g>
	<path d="M490.75,13.16c1.37-5.74-2.17-11.5-7.91-12.87c-2.52-0.59-5.14-0.27-7.43,0.92L37.63,230.76
		c-15.26,8.05-21.1,26.92-13.07,42.18c2.55,4.83,6.31,8.91,10.93,11.82l97.46,61.6c2.01,1.27,4.62,1.06,6.41-0.52l259.83-232.27
		c2.13-2.02,5.5-1.93,7.52,0.2c1.87,1.97,1.95,5.04,0.19,7.11L199.27,381.32c-1.84,2.31-1.46,5.67,0.86,7.51l0.47,0.33l137.47,86.97
		c14.52,9.14,33.71,4.78,42.85-9.73c1.83-2.9,3.16-6.07,3.96-9.41L490.75,13.16z"/>
	<path d="M168.05,409.49c-2.5-1.58-5.82-0.82-7.4,1.68l-0.83,2.84c0,22.56,0,76.62,0,76.62c0,11.79,9.58,21.37,21.38,21.37
		c5.67,0,11.09-2.25,15.1-6.26l43.13-43.12c2.09-2.11,2.07-5.49-0.04-7.58l-0.88-0.71L168.05,409.49z"/>
</g>
</svg>