<svg data-glyph="chess-bullet" aria-hidden="true" viewBox="0 0 24 24" xmlns="http://www.w3.org/2000/svg">
<path fill="#E3AA24" d="m7.17 15.3 1.43 1.47-8.27 6.9zm-6.87 2.3 4.5-6 .9 2zm10.47-7.5c3.47-3.6 5.93-5.2 8.7-6.4-2.4 0-5.3.37-9.8 4.6.03.5.7 1.47 1.1 1.8zm11.06-7.93s.23 1.1.23 2.77c0 2.67-.67 6.83-4.17 10.33l-2.17 2.17c-.67.67-1.33.6-2.13.27l-7.47 6.3 9.8-12.17-5.23 4.03c-.43-.4-.93-.83-1.33-1.23-1.73-1.7-4.13-5-2.77-6.37l2.2-2.13c3.53-3.5 7.63-4.2 10.3-4.2 1.63 0 2.73.23 2.73.23zm0 0">
</path></svg>