<svg data-glyph="cs2-premier" aria-hidden="true" class="inline h-6 w-auto" viewBox="0 0 125 40" xmlns="http://www.w3.org/2000/svg">
<path d="M10.5449 1H118.411C121.468 1.0002 123.809 3.71928 123.355 6.74219L119.155 34.7422C118.788 37.1895 116.686 38.9999 114.211 39H6.34473C3.28805 38.9998 0.946954 36.2807 1.40039 33.2578L5.60059 5.25781C5.96793 2.81051 8.07017 1.00006 10.5449 1Z" fill="#2F0A1E" stroke="#EC4899" stroke-width="2"></path>
<path d="M4.84496 3.40663C5.13867 1.44855 6.82072 0 8.80071 0H13.356L7.35596 40H4.00071C1.55523 40 -0.317801 37.8251 0.0449613 35.4066L4.84496 3.40663Z" fill="#EC4899"></path>
<path d="M17.2617 0H26.2617L20.2617 40H11.2617L17.2617 0Z" fill="#EC4899">
</path></svg>